<?xml version="1.0" encoding="utf-8"?>
<!-- Generator: Adobe Illustrator 27.0.0, SVG Export Plug-In . SVG Version: 6.00 Build 0)  -->
<svg version="1.1" id="Layer_1" xmlns="http://www.w3.org/2000/svg" xmlns:xlink="http://www.w3.org/1999/xlink" x="0px" y="0px"
	 viewBox="0 0 571.13 437.58" style="enable-background:new 0 0 571.13 437.58;" xml:space="preserve">
<style type="text/css">
	.st0{fill:#39B2DA;}
	.st1{fill:#3A9045;}
	.st2{stroke:#000000;stroke-width:2.2042;stroke-miterlimit:10;}
	.st3{fill:#FFFFFF;stroke:#000000;stroke-width:2.4606;stroke-miterlimit:10;}
	.st4{stroke:#FFFFFF;stroke-width:2.3573;stroke-miterlimit:10;}
</style>
<path class="st0" d="M475,218.78c0,10.83-0.78,21.49-2.31,31.88c-15.44,105.75-106.47,186.92-216.47,186.92
	c-97.56,0-180.21-63.84-208.43-152.05c-4.05-12.64-6.98-25.75-8.66-39.27c-1.13-8.99-1.71-18.17-1.71-27.48
	c0-10.27,0.7-20.35,2.08-30.23h0.02c2.53-18.58,7.45-36.41,14.37-53.18C86.69,55.92,164.92,0,256.22,0
	c34.64,0,67.38,8.05,96.49,22.37c12.58,6.19,24.47,13.54,35.54,21.96c11.07,8.38,21.32,17.78,30.6,28.09
	c3.09,3.42,6.07,6.96,8.93,10.58c10.27,12.97,19.12,27.13,26.26,42.25c0.95,1.96,1.85,3.95,2.72,5.95
	c5.31,12.12,9.55,24.84,12.6,38.01C473.04,185.15,475,201.74,475,218.78z"/>
<path class="st1" d="M454.56,156.6c-0.35,1.93-0.84,3.73-1.54,5.39c-0.82,2.02-1.91,3.81-3.29,5.37
	c-6.44,7.33-19.12,7.37-40.79,3.29c-5.31-0.99-11.16-2.24-17.6-3.68c-6.38-1.42-13.36-3.05-20.93-4.84
	c-73.93-17.41-110.89-26.1-118.55-52.32c-9.59-32.83,24.59-83.66,67.98-90.64c11.92-1.91,22.91-0.29,32.87,3.19
	c14.7,5.12,27.11,14.26,36.82,21.9c1.23,0.97,2.41,1.89,3.54,2.8c9.32,7.41,18.03,16.07,25.79,25.36c2.9,3.46,5.66,7,8.27,10.58
	c10.17,13.93,18.13,28.61,22.89,42.01c1.09,3.03,2.02,5.99,2.76,8.85C455.01,142.44,455.69,150.22,454.56,156.6z"/>
<path class="st1" d="M129.82,62.76C58.65,88.2,21.3,214.58,58.34,252.78c23.44,24.18,80.68,17.15,91.53-4.36
	c9.92-19.67-22.67-44.05-11.33-68.86c8.72-19.08,31.49-12.28,49.69-34.87c16.95-21.03,22.22-58,5.23-75.84
	C177.78,52.41,147.28,56.52,129.82,62.76z"/>
<path class="st1" d="M216.98,264.12c30.84-26.24,21.72-47.9,49.69-67.12c35.96-24.72,103.8-25.18,141.21,16.56
	c39.92,44.54,20.83,109.93,2.62,142.08c-42.2,74.49-151.41,97.16-223.15,61.02c-50.05-25.22-89.19-82.76-75.84-109.83
	C123.94,281.63,172.34,302.09,216.98,264.12z"/>
<path class="st2" d="M12.14,231.65C0.68,245.26,0.08,253.35,1.86,258.29c12.22,33.78,170.66,14.52,295.67-26.71
	c40.67-13.41,73.35-27.73,95.68-38.35c-5.28-7.85-10.56-15.7-15.83-23.55c-14.73,5.44-41.09,14.87-74.49,24.98
	c-129.12,39.08-284.56,62.62-291.14,41.24C11.49,235.1,11.3,233.71,12.14,231.65z"/>
<g>
	<path class="st3" d="M184.02,281.34c-0.39,1.07-1.24,2.1-2.56,3.1c-1.32,1-2.47,1.61-3.45,1.82c-2.63,0.56-5.29-0.25-7.99-2.46
		c-2.71-2.2-7.3-8.29-13.78-18.27c-6.48-9.97-10.15-15.87-10.99-17.7l-8.9,29.25c-4.93,16.17-8.72,24.55-11.38,25.12
		c-1.92,0.41-3.66,0.3-5.23-0.32c-1.57-0.62-3.26-2.16-5.07-4.59c-1.81-2.44-4.78-8.1-8.9-16.99c-4.12-8.88-8.05-17.91-11.8-27.08
		c-3.75-9.17-6.14-14.81-7.16-16.92c-0.67-1.41-1.26-2.53-1.77-3.37c-1.69-2.91-2.69-5.08-2.99-6.48c-0.37-1.72,0.03-3.56,1.21-5.51
		c1.18-1.95,2.79-3.15,4.82-3.59c3.72-0.8,6.96,1.61,9.72,7.22c2.76,5.61,4.5,9.63,5.23,12.06l3.66,9.6
		c1.18,3.23,2.56,6.68,4.13,10.36c1.64,3.83,3,7.1,4.07,9.82c3.59,9.1,5.73,14.09,6.41,14.97c4.82-13.24,7.95-22.24,9.38-26.99
		c1.44-4.76,3.41-12.56,5.91-23.42c0.34-1.1,1.04-2.18,2.1-3.25c1.06-1.07,2.24-1.74,3.53-2.02c1.68-0.36,3.28,0.2,4.78,1.68
		c1.5,1.48,4.39,5.49,8.66,12.03c0.21,0.41,0.52,0.89,0.93,1.46l7.46,11.55c6.64,10.33,10.21,15.59,10.7,15.77
		c6.65-23.59,8.71-46.72,6.18-69.41c-0.33-1.53,0.09-2.87,1.25-4.05c1.16-1.17,2.63-1.94,4.39-2.32c2.43-0.52,4.31-0.14,5.65,1.15
		c1.34,1.29,2.21,2.87,2.62,4.75c0.83,3.88,1.09,10.22,0.77,19.04c-0.32,8.81-1.51,18.52-3.58,29.12l-0.83,4.42
		c-0.19,1.23-1.92,8.52-5.2,21.88C184.98,276.86,184.33,279.72,184.02,281.34z"/>
	<path class="st3" d="M244.83,214.84c0.08-0.02,0.43-0.67,1.05-1.95c11.7-20.12,18.69-31.68,20.98-34.67
		c2.29-2.99,3.96-4.6,5.01-4.82c1.49-0.32,3.34,0.1,5.56,1.27c2.21,1.16,3.49,2.53,3.83,4.09c0.3,1.37-1.25,4.28-4.64,8.74
		c-2.82,3.84-6.02,8.69-9.6,14.53l-1.86,2.8c-7.59,11.01-11.24,17.2-10.95,18.57c0.15,0.7,3.87,3.84,11.14,9.41
		c7.27,5.57,12.57,8.91,15.89,10.05c3.46,1.22,6.32,2.79,8.6,4.7c2.27,1.91,3.49,3.24,3.65,3.98c0.32,1.49-0.04,3.01-1.08,4.56
		c-1.04,1.55-2.44,2.52-4.2,2.9c-3.53,0.76-7.24,0.13-11.15-1.87c-3.91-2.01-9.48-6.09-16.7-12.24
		c-6.05-5.09-10.44-8.67-13.18-10.75c-0.77,1.39-2.65,4.54-5.65,9.45c-8.28,13.53-12.63,22.25-13.07,26.15
		c-0.62,4.19-1.15,6.92-1.59,8.21c-0.44,1.28-1.34,2.47-2.71,3.56c-1.36,1.09-3.16,1.88-5.39,2.35c-4.35,0.93-6.96-0.64-7.83-4.71
		c-0.64-2.97,0.74-7.93,4.15-14.87c3.41-6.94,8.87-16.27,16.39-28l5.06-8.21c0.55-0.86,0.94-1.53,1.16-2.03
		c-0.91-0.99-2.17-2.11-3.79-3.36c-3.13-2.36-8.39-6.85-15.79-13.47c-7.4-6.63-11.29-10.8-11.66-12.52c-0.43-2-0.14-4.13,0.87-6.39
		c1.01-2.27,2.28-3.56,3.81-3.89c1.68-0.36,3.29-0.22,4.83,0.44c1.53,0.65,3.42,2.4,5.67,5.23
		C227.8,199.78,235.53,207.37,244.83,214.84z"/>
</g>
<path class="st4" d="M552.79,87.11c-2.64-7.95-21.19-10.17-32-9.41c-9.79,0.71-17.4,4.19-21.98,6.8
	c-5.62,3.55-11.26,7.12-16.88,10.66c-10.18,6.43-20.35,12.85-30.53,19.28c-7.2-0.49-14.4-0.98-21.6-1.48
	c-3.77-0.27-7.51-0.52-11.28-0.79c-1.47-0.1-2.96-0.2-4.42-0.3c-11.42-0.79-22.81-1.58-34.23-2.36
	c-13.09-0.81-22.59-1.55-29.13-2.09c-1.58-0.12-3.34-0.27-5.73,0c-10.22,1.21-20.92,8.96-20.56,15.12c0.32,5,7.92,8.08,16.25,11.47
	c11.51,4.65,22.7,9.21,35.16,14.28c4.29,1.75,8.73,3.55,13.38,5.44c-6.72,4.24-13.45,8.5-20.17,12.75
	c-4.04,2.54-8.08,5.1-12.12,7.66c-8.44-1.11-16.9-2.19-25.34-3.3c-10.34-1.33-20.67-2.68-31.03-4.01c-3.75,1.01-8.35,2.83-9.07,6.25
	c-0.63,3.08,2.12,5.96,8.85,11.55c3.25,2.71,7.45,6.03,12.64,10.34c17.99,14.92,19.99,18.22,27.24,19.82
	c2.91,0.64,5.73,0.79,8.37,0.62c6.09-0.37,11.35-2.44,15.03-4.26c10.52-5.27,31.84-12.98,60.21-23.98
	c-5.82,28.51-10.76,53.11-15.3,75.05c-1.26,6.11-2.73,14.75,0.97,17.73c5.15,4.19,18.96-4.01,27.22-14.6
	c0.83-1.06,1.58-2.12,2.26-3.15c2.89-4.36,4.29-8,4.58-8.77C449.53,238,467.42,199,493.55,143.4
	C544.08,110.31,555.34,94.72,552.79,87.11z M458.55,123.6l2.3-1.6c0.93-0.66,2.19-0.37,2.78,0.66l3.81,6.48
	c0.61,1.01,0.34,2.39-0.61,3.03l-2.3,1.63c-0.93,0.64-2.17,0.34-2.78-0.66l-3.81-6.5C457.33,125.62,457.63,124.27,458.55,123.6z
	 M445.33,132.02l2.3-1.6c0.93-0.66,2.19-0.37,2.78,0.66l3.81,6.48c0.61,1.03,0.34,2.39-0.61,3.05l-2.3,1.6
	c-0.93,0.66-2.17,0.34-2.78-0.66l-3.81-6.48C444.13,134.04,444.4,132.69,445.33,132.02z M431.72,141.48l2.28-1.63
	c0.95-0.64,2.19-0.34,2.8,0.66l3.81,6.5c0.59,1.01,0.32,2.36-0.61,3.03l-2.3,1.6c-0.95,0.66-2.19,0.37-2.78-0.66l-3.81-6.48
	C430.5,143.5,430.77,142.12,431.72,141.48z M416.29,154.23c-0.59-1.01-0.32-2.36,0.61-3.03l2.19-1.53l0.11-0.07
	c0.93-0.66,2.19-0.37,2.78,0.66l3.81,6.48c0.61,1.03,0.34,2.39-0.61,3.03l-2.3,1.63c-0.93,0.64-2.17,0.34-2.78-0.66l-2.71-4.6
	L416.29,154.23z M481.14,122.99l-2.28,1.63c-0.95,0.64-2.19,0.34-2.8-0.66l-0.11-0.2l-3.7-6.3c-0.59-1.01-0.32-2.39,0.61-3.03
	l2.3-1.6c0.95-0.66,2.19-0.37,2.78,0.66l1.76,2.98l2.05,3.5C482.36,120.97,482.09,122.35,481.14,122.99z M493.98,113.65l-2.3,1.6
	c-0.93,0.66-2.19,0.37-2.78-0.66l-3.81-6.48c-0.61-1.03-0.34-2.39,0.61-3.05l2.3-1.6c0.93-0.66,2.17-0.34,2.78,0.66l3.81,6.48
	C495.2,111.64,494.91,112.99,493.98,113.65z M507,104.32l-2.28,1.63c-0.95,0.64-2.19,0.34-2.8-0.66l-3.81-6.5
	c-0.59-1.01-0.32-2.36,0.61-3.03l2.3-1.6c0.95-0.66,2.19-0.37,2.78,0.66l3.81,6.48C508.22,102.33,507.95,103.68,507,104.32z"/>
</svg>
